<?xml version="1.0" encoding="UTF-8" standalone="no"?><svg xmlns="http://www.w3.org/2000/svg" xmlns:xlink="http://www.w3.org/1999/xlink" width="500" zoomAndPan="magnify" viewBox="0 0 375 374.999991" height="500" preserveAspectRatio="xMidYMid meet" version="1.2"><defs><clipPath id="2cc58d0fb3"><path d="M 87.054688 126 L 208 126 L 208 193.898438 L 87.054688 193.898438 Z M 87.054688 126 "/></clipPath><clipPath id="3ddb0a75c7"><path d="M 201 153 L 288 153 L 288 193.898438 L 201 193.898438 Z M 201 153 "/></clipPath><clipPath id="b6df48db6f"><path d="M 244 187 L 288 187 L 288 275 L 244 275 Z M 244 187 "/></clipPath><clipPath id="d3559316e3"><path d="M 276.601562 187.785156 L 287.941406 192.199219 L 255.847656 274.660156 L 244.503906 270.246094 Z M 276.601562 187.785156 "/></clipPath><clipPath id="faed20ffce"><path d="M 87 187 L 131 187 L 131 275 L 87 275 Z M 87 187 "/></clipPath><clipPath id="3f0e008ea4"><path d="M 87.058594 191.984375 L 98.539062 187.496094 L 130.855469 270.171875 L 119.375 274.660156 Z M 87.058594 191.984375 "/></clipPath></defs><g id="09ae98405f"><g clip-rule="nonzero" clip-path="url(#2cc58d0fb3)"><path style=" stroke:none;fill-rule:nonzero;fill:#4ec878;fill-opacity:1;" d="M 206.9375 147.367188 L 201.46875 141.898438 L 200.085938 143.285156 C 200.0625 143.308594 200.039062 143.328125 200.015625 143.351562 C 200.011719 143.355469 200.007812 143.359375 200 143.359375 C 199.984375 143.375 199.964844 143.386719 199.945312 143.402344 C 199.925781 143.414062 199.90625 143.425781 199.882812 143.4375 C 199.878906 143.445312 199.875 143.449219 199.863281 143.449219 C 199.847656 143.457031 199.824219 143.46875 199.804688 143.476562 C 199.800781 143.480469 199.789062 143.480469 199.785156 143.484375 C 199.765625 143.496094 199.746094 143.5 199.730469 143.503906 C 199.71875 143.507812 199.710938 143.515625 199.695312 143.515625 C 199.683594 143.519531 199.667969 143.523438 199.648438 143.527344 C 199.636719 143.53125 199.621094 143.539062 199.605469 143.539062 C 199.597656 143.539062 199.582031 143.542969 199.574219 143.542969 C 199.554688 143.546875 199.535156 143.546875 199.519531 143.550781 C 199.507812 143.550781 199.503906 143.550781 199.496094 143.550781 C 199.472656 143.550781 199.453125 143.554688 199.429688 143.554688 C 199.425781 143.554688 199.414062 143.554688 199.410156 143.554688 C 199.386719 143.554688 199.363281 143.554688 199.339844 143.550781 C 199.320312 143.550781 199.296875 143.546875 199.277344 143.542969 C 199.269531 143.542969 199.257812 143.539062 199.25 143.539062 C 199.21875 143.53125 199.1875 143.523438 199.160156 143.515625 C 197.875 143.125 196.980469 142.546875 196.355469 141.917969 C 195.734375 141.300781 195.382812 140.636719 195.175781 140.070312 C 194.921875 139.367188 194.871094 138.726562 194.875 138.285156 C 194.746094 137.953125 194.808594 137.554688 195.082031 137.28125 C 195.828125 136.535156 195.828125 135.324219 195.082031 134.578125 L 191.6875 131.183594 C 190.941406 130.4375 189.730469 130.4375 188.984375 131.183594 L 188.972656 131.199219 C 188.960938 131.207031 188.953125 131.21875 188.945312 131.222656 C 188.929688 131.230469 188.917969 131.246094 188.90625 131.253906 C 188.890625 131.265625 188.882812 131.273438 188.867188 131.28125 C 188.855469 131.292969 188.839844 131.300781 188.832031 131.3125 C 188.816406 131.320312 188.800781 131.324219 188.789062 131.335938 C 188.773438 131.34375 188.761719 131.347656 188.75 131.359375 C 188.738281 131.367188 188.722656 131.371094 188.707031 131.375 C 188.695312 131.382812 188.679688 131.390625 188.667969 131.394531 C 188.652344 131.402344 188.636719 131.40625 188.625 131.410156 C 188.609375 131.414062 188.597656 131.417969 188.582031 131.425781 C 188.566406 131.429688 188.554688 131.433594 188.535156 131.433594 C 188.519531 131.4375 188.507812 131.4375 188.492188 131.441406 C 188.480469 131.449219 188.460938 131.449219 188.445312 131.449219 C 188.433594 131.449219 188.417969 131.453125 188.402344 131.453125 C 188.390625 131.453125 188.371094 131.453125 188.355469 131.457031 C 188.34375 131.457031 188.328125 131.457031 188.316406 131.457031 C 188.300781 131.457031 188.285156 131.457031 188.273438 131.457031 C 188.257812 131.457031 188.242188 131.457031 188.230469 131.453125 C 188.214844 131.453125 188.203125 131.449219 188.1875 131.449219 C 188.171875 131.441406 188.160156 131.441406 188.144531 131.441406 C 188.132812 131.4375 188.117188 131.4375 188.101562 131.433594 C 188.089844 131.429688 188.074219 131.429688 188.0625 131.425781 C 188.046875 131.417969 188.03125 131.414062 188.019531 131.410156 C 188.003906 131.40625 187.992188 131.402344 187.976562 131.394531 C 187.960938 131.390625 187.949219 131.382812 187.929688 131.375 C 187.914062 131.371094 187.90625 131.367188 187.890625 131.359375 C 187.875 131.347656 187.859375 131.339844 187.84375 131.328125 C 187.835938 131.324219 187.828125 131.316406 187.816406 131.3125 C 187.796875 131.296875 187.773438 131.28125 187.757812 131.269531 C 187.75 131.265625 187.746094 131.257812 187.742188 131.257812 C 187.71875 131.242188 187.695312 131.21875 187.671875 131.195312 L 187.65625 131.179688 C 183.859375 127.242188 179.214844 125.722656 173.839844 126.667969 C 171.628906 127.058594 169.703125 127.804688 168.335938 128.460938 C 169.308594 128.710938 170.613281 129.121094 172.039062 129.765625 C 175.175781 131.203125 179.1875 133.992188 180.433594 139.105469 C 180.433594 139.113281 180.433594 139.117188 180.4375 139.121094 C 180.445312 139.148438 180.453125 139.183594 180.453125 139.210938 C 180.453125 139.214844 180.457031 139.222656 180.457031 139.230469 C 180.460938 139.265625 180.460938 139.300781 180.460938 139.335938 C 180.460938 139.347656 180.460938 139.355469 180.460938 139.367188 C 180.460938 139.394531 180.457031 139.421875 180.453125 139.449219 C 180.453125 139.460938 180.449219 139.46875 180.449219 139.484375 C 180.445312 139.511719 180.4375 139.539062 180.429688 139.570312 C 180.429688 139.578125 180.425781 139.585938 180.425781 139.589844 C 180.414062 139.625 180.402344 139.660156 180.386719 139.695312 C 180.386719 139.699219 180.382812 139.703125 180.382812 139.707031 C 180.371094 139.734375 180.355469 139.765625 180.339844 139.792969 C 180.335938 139.800781 180.332031 139.8125 180.324219 139.816406 C 180.3125 139.839844 180.296875 139.863281 180.277344 139.886719 C 180.273438 139.894531 180.269531 139.90625 180.261719 139.910156 C 180.238281 139.9375 180.214844 139.964844 180.183594 139.996094 L 134.800781 185.378906 L 87.054688 185.378906 L 87.054688 193.585938 L 139.039062 193.585938 L 184.921875 147.699219 C 185.464844 147.359375 186.210938 146.972656 187.070312 146.773438 C 187.109375 146.761719 187.144531 146.753906 187.183594 146.75 C 187.746094 146.625 188.355469 146.582031 188.984375 146.679688 C 190.515625 146.917969 191.792969 147.902344 192.789062 149.609375 C 192.792969 149.617188 192.792969 149.621094 192.792969 149.625 C 192.800781 149.644531 192.8125 149.660156 192.820312 149.675781 C 192.824219 149.6875 192.828125 149.699219 192.835938 149.710938 C 192.839844 149.722656 192.847656 149.742188 192.851562 149.757812 C 192.859375 149.769531 192.863281 149.785156 192.867188 149.792969 C 192.871094 149.808594 192.875 149.824219 192.875 149.835938 C 192.882812 149.851562 192.886719 149.871094 192.886719 149.882812 C 192.890625 149.898438 192.890625 149.90625 192.894531 149.921875 C 192.898438 149.941406 192.898438 149.953125 192.90625 149.972656 C 192.90625 149.988281 192.90625 149.996094 192.910156 150.011719 C 192.910156 150.027344 192.914062 150.042969 192.914062 150.0625 C 192.914062 150.074219 192.914062 150.085938 192.914062 150.097656 C 192.914062 150.113281 192.914062 150.132812 192.914062 150.144531 C 192.914062 150.160156 192.910156 150.175781 192.910156 150.1875 C 192.910156 150.203125 192.90625 150.214844 192.90625 150.230469 C 192.898438 150.246094 192.898438 150.261719 192.894531 150.277344 C 192.890625 150.292969 192.890625 150.300781 192.886719 150.316406 C 192.882812 150.335938 192.875 150.347656 192.871094 150.367188 C 192.867188 150.382812 192.863281 150.390625 192.859375 150.398438 C 192.851562 150.417969 192.84375 150.433594 192.839844 150.445312 C 192.835938 150.460938 192.828125 150.46875 192.820312 150.484375 C 192.8125 150.5 192.804688 150.511719 192.796875 150.527344 C 192.792969 150.539062 192.78125 150.554688 192.773438 150.5625 C 192.769531 150.578125 192.757812 150.585938 192.75 150.597656 C 192.742188 150.609375 192.730469 150.625 192.71875 150.640625 C 192.707031 150.648438 192.703125 150.65625 192.695312 150.667969 C 192.679688 150.679688 192.671875 150.695312 192.65625 150.710938 C 192.652344 150.714844 192.652344 150.71875 192.648438 150.71875 L 191.195312 152.167969 L 196.664062 157.636719 C 197.0625 158.035156 197.714844 158.035156 198.113281 157.636719 L 206.941406 148.808594 C 207.335938 148.414062 207.335938 147.765625 206.9375 147.367188 Z M 206.9375 147.367188 "/></g><path style=" stroke:none;fill-rule:nonzero;fill:#38b6ff;fill-opacity:1;" d="M 178.527344 162.566406 L 186.703125 162.566406 L 186.703125 170.742188 L 178.527344 170.742188 Z M 178.527344 162.566406 "/><path style=" stroke:none;fill-rule:nonzero;fill:#38b6ff;fill-opacity:1;" d="M 188.808594 162.566406 L 196.984375 162.566406 L 196.984375 170.742188 L 188.808594 170.742188 Z M 188.808594 162.566406 "/><path style=" stroke:none;fill-rule:nonzero;fill:#38b6ff;fill-opacity:1;" d="M 188.808594 173.394531 L 196.984375 173.394531 L 196.984375 181.570312 L 188.808594 181.570312 Z M 188.808594 173.394531 "/><path style=" stroke:none;fill-rule:nonzero;fill:#38b6ff;fill-opacity:1;" d="M 178.527344 173.394531 L 186.703125 173.394531 L 186.703125 181.570312 L 178.527344 181.570312 Z M 178.527344 173.394531 "/><g clip-rule="nonzero" clip-path="url(#3ddb0a75c7)"><path style=" stroke:none;fill-rule:nonzero;fill:#38b6ff;fill-opacity:1;" d="M 240.195312 185.371094 L 208.042969 153.214844 L 201.816406 159.433594 L 235.957031 193.574219 L 287.9375 193.574219 L 287.9375 185.371094 Z M 240.195312 185.371094 "/></g><path style=" stroke:none;fill-rule:nonzero;fill:#38b6ff;fill-opacity:1;" d="M 230.410156 146.433594 L 221.613281 146.433594 L 221.613281 162.457031 L 230.410156 170.578125 Z M 230.410156 146.433594 "/><g clip-rule="nonzero" clip-path="url(#b6df48db6f)"><g clip-rule="nonzero" clip-path="url(#d3559316e3)"><path style=" stroke:none;fill-rule:nonzero;fill:#38b6ff;fill-opacity:1;" d="M 276.601562 187.785156 L 287.941406 192.199219 L 255.851562 274.648438 L 244.507812 270.234375 Z M 276.601562 187.785156 "/></g></g><g style="fill:#000000;fill-opacity:1;"><g transform="translate(134.950176, 218.054179)"><path style="stroke:none" d="M 27.703125 -23.171875 L 27.703125 0 L 24.8125 0 L 24.8125 -21.015625 L 17 0 L 13.09375 0 L 5.265625 -21.015625 L 5.265625 0 L 2.375 0 L 2.375 -23.171875 L 7.421875 -23.171875 L 15.09375 -2.609375 L 22.71875 -23.171875 Z M 27.703125 -23.171875 "/></g></g><g style="fill:#000000;fill-opacity:1;"><g transform="translate(165.006846, 218.054179)"><path style="stroke:none" d="M 20.203125 0 L 17.9375 -5.921875 L 6.453125 -5.921875 L 4.1875 0 L 1.296875 0 L 10.0625 -23.171875 L 14.359375 -23.171875 L 23.140625 0 Z M 7.3125 -8.265625 L 17.078125 -8.265625 L 12.1875 -21.078125 Z M 7.3125 -8.265625 "/></g></g><g style="fill:#000000;fill-opacity:1;"><g transform="translate(189.3517, 218.054179)"><path style="stroke:none" d="M 13.484375 0.59375 C 10.835938 0.59375 8.660156 0.0664062 6.953125 -0.984375 C 5.242188 -2.046875 3.976562 -3.492188 3.15625 -5.328125 C 2.332031 -7.160156 1.921875 -9.253906 1.921875 -11.609375 C 1.921875 -13.929688 2.335938 -16.007812 3.171875 -17.84375 C 4.003906 -19.675781 5.28125 -21.125 7 -22.1875 C 8.71875 -23.257812 10.898438 -23.796875 13.546875 -23.796875 C 17.128906 -23.796875 19.78125 -22.96875 21.5 -21.3125 C 23.21875 -19.664062 24.21875 -17.40625 24.5 -14.53125 L 21.5625 -14.53125 C 21.332031 -16.800781 20.554688 -18.507812 19.234375 -19.65625 C 17.910156 -20.8125 15.992188 -21.390625 13.484375 -21.390625 C 10.597656 -21.390625 8.453125 -20.570312 7.046875 -18.9375 C 5.648438 -17.300781 4.953125 -14.859375 4.953125 -11.609375 C 4.953125 -8.378906 5.640625 -5.9375 7.015625 -4.28125 C 8.398438 -2.632812 10.535156 -1.8125 13.421875 -1.8125 C 16.046875 -1.8125 18.03125 -2.460938 19.375 -3.765625 C 20.71875 -5.066406 21.472656 -6.890625 21.640625 -9.234375 L 24.59375 -9.234375 C 24.476562 -7.285156 24.015625 -5.570312 23.203125 -4.09375 C 22.390625 -2.613281 21.1875 -1.460938 19.59375 -0.640625 C 18.007812 0.179688 15.972656 0.59375 13.484375 0.59375 Z M 13.484375 0.59375 "/></g></g><g style="fill:#000000;fill-opacity:1;"><g transform="translate(215.681761, 218.054179)"><path style="stroke:none" d="M 20.203125 0 L 17.9375 -5.921875 L 6.453125 -5.921875 L 4.1875 0 L 1.296875 0 L 10.0625 -23.171875 L 14.359375 -23.171875 L 23.140625 0 Z M 7.3125 -8.265625 L 17.078125 -8.265625 L 12.1875 -21.078125 Z M 7.3125 -8.265625 "/></g></g><g clip-rule="nonzero" clip-path="url(#faed20ffce)"><g clip-rule="nonzero" clip-path="url(#3f0e008ea4)"><path style=" stroke:none;fill-rule:nonzero;fill:#4ec878;fill-opacity:1;" d="M 87.058594 191.984375 L 98.539062 187.496094 L 130.863281 270.191406 L 119.382812 274.675781 Z M 87.058594 191.984375 "/></g></g><g style="fill:#302727;fill-opacity:1;"><g transform="translate(133.120221, 234.772895)"><path style="stroke:none" d="M 5.65625 -7.84375 L 3.8125 -7.84375 L 3.8125 -0.875 L 5.65625 -0.875 L 5.65625 0 L 0.875 0 L 0.875 -0.875 L 2.734375 -0.875 L 2.734375 -7.84375 L 0.875 -7.84375 L 0.875 -8.734375 L 5.65625 -8.734375 Z M 5.65625 -7.84375 "/></g></g><g style="fill:#302727;fill-opacity:1;"><g transform="translate(141.349964, 234.772895)"><path style="stroke:none" d="M 7.25 -8.734375 L 8.328125 -8.734375 L 8.328125 0 L 6.5 0 L 2.53125 -6.84375 C 2.3125 -7.269531 2.128906 -7.65625 1.984375 -8 L 1.984375 0 L 0.890625 0 L 0.890625 -8.734375 L 2.734375 -8.734375 L 6.6875 -1.859375 C 6.78125 -1.710938 6.875 -1.535156 6.96875 -1.328125 C 7.0625 -1.128906 7.15625 -0.929688 7.25 -0.734375 Z M 7.25 -8.734375 "/></g></g><g style="fill:#302727;fill-opacity:1;"><g transform="translate(152.270316, 234.772895)"><path style="stroke:none" d="M 7.28125 -8.734375 L 8.390625 -8.734375 L 5.234375 0 L 3.65625 0 L 0.5 -8.734375 L 1.640625 -8.734375 L 4.078125 -2 C 4.234375 -1.59375 4.363281 -1.207031 4.46875 -0.84375 C 4.519531 -1.03125 4.578125 -1.21875 4.640625 -1.40625 C 4.703125 -1.601562 4.765625 -1.800781 4.828125 -2 Z M 7.28125 -8.734375 "/></g></g><g style="fill:#302727;fill-opacity:1;"><g transform="translate(162.862543, 234.772895)"><path style="stroke:none" d="M 1.984375 -0.875 L 7.390625 -0.875 L 7.390625 0 L 0.890625 0 L 0.890625 -8.734375 L 7.34375 -8.734375 L 7.34375 -7.84375 L 1.984375 -7.84375 L 1.984375 -4.921875 L 6.953125 -4.921875 L 6.953125 -4.0625 L 1.984375 -4.0625 Z M 1.984375 -0.875 "/></g></g><g style="fill:#302727;fill-opacity:1;"><g transform="translate(172.772279, 234.772895)"><path style="stroke:none" d="M 0.6875 -3 L 1.75 -3 C 1.757812 -2.550781 1.847656 -2.148438 2.015625 -1.796875 C 2.191406 -1.441406 2.476562 -1.160156 2.875 -0.953125 C 3.28125 -0.753906 3.816406 -0.65625 4.484375 -0.65625 C 5.085938 -0.65625 5.5625 -0.71875 5.90625 -0.84375 C 6.25 -0.976562 6.488281 -1.164062 6.625 -1.40625 C 6.769531 -1.65625 6.84375 -1.945312 6.84375 -2.28125 C 6.84375 -2.75 6.710938 -3.101562 6.453125 -3.34375 C 6.203125 -3.59375 5.800781 -3.757812 5.25 -3.84375 L 3.1875 -4.15625 C 2.425781 -4.269531 1.863281 -4.515625 1.5 -4.890625 C 1.144531 -5.265625 0.96875 -5.78125 0.96875 -6.4375 C 0.96875 -6.914062 1.085938 -7.34375 1.328125 -7.71875 C 1.566406 -8.101562 1.929688 -8.40625 2.421875 -8.625 C 2.910156 -8.851562 3.535156 -8.96875 4.296875 -8.96875 C 5.441406 -8.96875 6.300781 -8.703125 6.875 -8.171875 C 7.445312 -7.648438 7.765625 -6.96875 7.828125 -6.125 L 6.765625 -6.125 C 6.710938 -6.71875 6.488281 -7.195312 6.09375 -7.5625 C 5.707031 -7.925781 5.101562 -8.109375 4.28125 -8.109375 C 3.507812 -8.109375 2.945312 -7.957031 2.59375 -7.65625 C 2.25 -7.351562 2.078125 -6.957031 2.078125 -6.46875 C 2.078125 -6.125 2.171875 -5.828125 2.359375 -5.578125 C 2.554688 -5.328125 2.898438 -5.164062 3.390625 -5.09375 L 5.5625 -4.765625 C 6.34375 -4.640625 6.929688 -4.394531 7.328125 -4.03125 C 7.734375 -3.664062 7.9375 -3.128906 7.9375 -2.421875 C 7.9375 -1.597656 7.664062 -0.953125 7.125 -0.484375 C 6.582031 -0.0234375 5.703125 0.203125 4.484375 0.203125 C 3.546875 0.203125 2.796875 0.0546875 2.234375 -0.234375 C 1.679688 -0.535156 1.285156 -0.925781 1.046875 -1.40625 C 0.804688 -1.894531 0.6875 -2.425781 0.6875 -3 Z M 0.6875 -3 "/></g></g><g style="fill:#302727;fill-opacity:1;"><g transform="translate(183.102013, 234.772895)"><path style="stroke:none" d="M 10.4375 -8.734375 L 10.4375 0 L 9.34375 0 L 9.34375 -7.921875 L 6.40625 0 L 4.9375 0 L 1.984375 -7.921875 L 1.984375 0 L 0.890625 0 L 0.890625 -8.734375 L 2.796875 -8.734375 L 5.6875 -0.984375 L 8.5625 -8.734375 Z M 10.4375 -8.734375 "/></g></g><g style="fill:#302727;fill-opacity:1;"><g transform="translate(196.122356, 234.772895)"><path style="stroke:none" d="M 1.984375 -0.875 L 7.390625 -0.875 L 7.390625 0 L 0.890625 0 L 0.890625 -8.734375 L 7.34375 -8.734375 L 7.34375 -7.84375 L 1.984375 -7.84375 L 1.984375 -4.921875 L 6.953125 -4.921875 L 6.953125 -4.0625 L 1.984375 -4.0625 Z M 1.984375 -0.875 "/></g></g><g style="fill:#302727;fill-opacity:1;"><g transform="translate(206.032092, 234.772895)"><path style="stroke:none" d="M 7.25 -8.734375 L 8.328125 -8.734375 L 8.328125 0 L 6.5 0 L 2.53125 -6.84375 C 2.3125 -7.269531 2.128906 -7.65625 1.984375 -8 L 1.984375 0 L 0.890625 0 L 0.890625 -8.734375 L 2.734375 -8.734375 L 6.6875 -1.859375 C 6.78125 -1.710938 6.875 -1.535156 6.96875 -1.328125 C 7.0625 -1.128906 7.15625 -0.929688 7.25 -0.734375 Z M 7.25 -8.734375 "/></g></g><g style="fill:#302727;fill-opacity:1;"><g transform="translate(216.952444, 234.772895)"><path style="stroke:none" d="M 7.78125 -8.734375 L 7.78125 -7.84375 L 4.65625 -7.84375 L 4.65625 0.015625 L 3.578125 0.015625 L 3.578125 -7.84375 L 0.4375 -7.84375 L 0.4375 -8.734375 Z M 7.78125 -8.734375 "/></g></g><g style="fill:#302727;fill-opacity:1;"><g transform="translate(226.875307, 234.772895)"><path style="stroke:none" d="M 0.6875 -3 L 1.75 -3 C 1.757812 -2.550781 1.847656 -2.148438 2.015625 -1.796875 C 2.191406 -1.441406 2.476562 -1.160156 2.875 -0.953125 C 3.28125 -0.753906 3.816406 -0.65625 4.484375 -0.65625 C 5.085938 -0.65625 5.5625 -0.71875 5.90625 -0.84375 C 6.25 -0.976562 6.488281 -1.164062 6.625 -1.40625 C 6.769531 -1.65625 6.84375 -1.945312 6.84375 -2.28125 C 6.84375 -2.75 6.710938 -3.101562 6.453125 -3.34375 C 6.203125 -3.59375 5.800781 -3.757812 5.25 -3.84375 L 3.1875 -4.15625 C 2.425781 -4.269531 1.863281 -4.515625 1.5 -4.890625 C 1.144531 -5.265625 0.96875 -5.78125 0.96875 -6.4375 C 0.96875 -6.914062 1.085938 -7.34375 1.328125 -7.71875 C 1.566406 -8.101562 1.929688 -8.40625 2.421875 -8.625 C 2.910156 -8.851562 3.535156 -8.96875 4.296875 -8.96875 C 5.441406 -8.96875 6.300781 -8.703125 6.875 -8.171875 C 7.445312 -7.648438 7.765625 -6.96875 7.828125 -6.125 L 6.765625 -6.125 C 6.710938 -6.71875 6.488281 -7.195312 6.09375 -7.5625 C 5.707031 -7.925781 5.101562 -8.109375 4.28125 -8.109375 C 3.507812 -8.109375 2.945312 -7.957031 2.59375 -7.65625 C 2.25 -7.351562 2.078125 -6.957031 2.078125 -6.46875 C 2.078125 -6.125 2.171875 -5.828125 2.359375 -5.578125 C 2.554688 -5.328125 2.898438 -5.164062 3.390625 -5.09375 L 5.5625 -4.765625 C 6.34375 -4.640625 6.929688 -4.394531 7.328125 -4.03125 C 7.734375 -3.664062 7.9375 -3.128906 7.9375 -2.421875 C 7.9375 -1.597656 7.664062 -0.953125 7.125 -0.484375 C 6.582031 -0.0234375 5.703125 0.203125 4.484375 0.203125 C 3.546875 0.203125 2.796875 0.0546875 2.234375 -0.234375 C 1.679688 -0.535156 1.285156 -0.925781 1.046875 -1.40625 C 0.804688 -1.894531 0.6875 -2.425781 0.6875 -3 Z M 0.6875 -3 "/></g></g><g style="fill:#302727;fill-opacity:1;"><g transform="translate(169.026468, 252.772894)"><path style="stroke:none" d="M 1.984375 -0.875 L 6.546875 -0.875 L 6.546875 0 L 0.890625 0 L 0.890625 -8.734375 L 1.984375 -8.734375 Z M 1.984375 -0.875 "/></g></g><g style="fill:#302727;fill-opacity:1;"><g transform="translate(177.558084, 252.772894)"><path style="stroke:none" d="M 1.984375 -0.875 L 6.546875 -0.875 L 6.546875 0 L 0.890625 0 L 0.890625 -8.734375 L 1.984375 -8.734375 Z M 1.984375 -0.875 "/></g></g><g style="fill:#302727;fill-opacity:1;"><g transform="translate(186.089699, 252.772894)"><path style="stroke:none" d="M 5.078125 0.21875 C 4.078125 0.21875 3.253906 0.0195312 2.609375 -0.375 C 1.972656 -0.769531 1.5 -1.3125 1.1875 -2 C 0.875 -2.695312 0.71875 -3.488281 0.71875 -4.375 C 0.71875 -5.25 0.875 -6.03125 1.1875 -6.71875 C 1.507812 -7.40625 1.992188 -7.953125 2.640625 -8.359375 C 3.285156 -8.765625 4.109375 -8.96875 5.109375 -8.96875 C 6.453125 -8.96875 7.445312 -8.65625 8.09375 -8.03125 C 8.738281 -7.40625 9.117188 -6.550781 9.234375 -5.46875 L 8.125 -5.46875 C 8.039062 -6.332031 7.75 -6.976562 7.25 -7.40625 C 6.75 -7.84375 6.023438 -8.0625 5.078125 -8.0625 C 3.992188 -8.0625 3.1875 -7.75 2.65625 -7.125 C 2.125 -6.507812 1.859375 -5.59375 1.859375 -4.375 C 1.859375 -3.15625 2.117188 -2.234375 2.640625 -1.609375 C 3.160156 -0.992188 3.960938 -0.6875 5.046875 -0.6875 C 6.035156 -0.6875 6.785156 -0.929688 7.296875 -1.421875 C 7.804688 -1.910156 8.09375 -2.597656 8.15625 -3.484375 L 9.265625 -3.484375 C 9.222656 -2.742188 9.046875 -2.09375 8.734375 -1.53125 C 8.429688 -0.976562 7.976562 -0.546875 7.375 -0.234375 C 6.78125 0.0664062 6.015625 0.21875 5.078125 0.21875 Z M 5.078125 0.21875 "/></g></g><g style="fill:#302727;fill-opacity:1;"><g transform="translate(197.705681, 252.772894)"><path style="stroke:none" d="M 0.28125 0 L 0.28125 -1.15625 L 1.640625 -1.15625 L 1.640625 0 Z M 0.28125 0 "/></g></g><g style="fill:#000000;fill-opacity:1;"><g transform="translate(171.681783, 262.620073)"><path style="stroke:none" d="M 6.109375 -4.671875 L 6.828125 -4.671875 L 5.8125 0 L 4.5625 0 L 3.578125 -4.09375 L 2.578125 0 L 1.328125 0 L 0.3125 -4.671875 L 1.046875 -4.671875 L 1.96875 -0.4375 L 3 -4.671875 L 4.140625 -4.671875 L 5.1875 -0.4375 Z M 6.109375 -4.671875 "/></g></g><g style="fill:#000000;fill-opacity:1;"><g transform="translate(179.668092, 262.620073)"><path style="stroke:none" d="M 2.53125 -2.703125 L 4.484375 -0.03125 L 4.484375 0 L 3.609375 0 L 2.03125 -2.1875 L 1.1875 -1.28125 L 1.1875 0 L 0.453125 0 L 0.453125 -4.671875 L 1.1875 -4.671875 L 1.1875 -2.203125 L 3.4375 -4.671875 L 4.375 -4.671875 Z M 2.53125 -2.703125 "/></g></g><g style="fill:#000000;fill-opacity:1;"><g transform="translate(184.607635, 262.620073)"><path style="stroke:none" d="M 2.75 0.125 C 2.195312 0.125 1.742188 0.015625 1.390625 -0.203125 C 1.046875 -0.421875 0.789062 -0.710938 0.625 -1.078125 C 0.46875 -1.453125 0.390625 -1.875 0.390625 -2.34375 C 0.390625 -2.800781 0.472656 -3.210938 0.640625 -3.578125 C 0.804688 -3.953125 1.066406 -4.25 1.421875 -4.46875 C 1.773438 -4.6875 2.222656 -4.796875 2.765625 -4.796875 C 3.265625 -4.796875 3.671875 -4.722656 3.984375 -4.578125 C 4.304688 -4.429688 4.546875 -4.21875 4.703125 -3.9375 C 4.867188 -3.65625 4.96875 -3.320312 5 -2.9375 L 4.265625 -2.9375 C 4.222656 -3.34375 4.082031 -3.65625 3.84375 -3.875 C 3.601562 -4.09375 3.238281 -4.203125 2.75 -4.203125 C 2.195312 -4.203125 1.789062 -4.039062 1.53125 -3.71875 C 1.269531 -3.40625 1.140625 -2.945312 1.140625 -2.34375 C 1.140625 -1.726562 1.265625 -1.265625 1.515625 -0.953125 C 1.773438 -0.640625 2.179688 -0.484375 2.734375 -0.484375 C 3.242188 -0.484375 3.617188 -0.597656 3.859375 -0.828125 C 4.109375 -1.066406 4.25 -1.398438 4.28125 -1.828125 L 5.03125 -1.828125 C 5 -1.429688 4.898438 -1.085938 4.734375 -0.796875 C 4.578125 -0.503906 4.332031 -0.273438 4 -0.109375 C 3.675781 0.046875 3.257812 0.125 2.75 0.125 Z M 2.75 0.125 "/></g></g><g style="fill:#000000;fill-opacity:1;"><g transform="translate(190.771511, 262.620073)"><path style="stroke:none" d="M 5.734375 -4.671875 L 5.734375 0 L 5 0 L 5 -4.109375 L 3.578125 0 L 2.609375 0 L 1.1875 -4.109375 L 1.1875 0 L 0.453125 0 L 0.453125 -4.671875 L 1.71875 -4.671875 L 3.09375 -0.703125 L 4.484375 -4.671875 Z M 5.734375 -4.671875 "/></g></g></g></svg>