<?xml version="1.0" encoding="UTF-8" standalone="no"?><svg xmlns="http://www.w3.org/2000/svg" xmlns:xlink="http://www.w3.org/1999/xlink" width="500" zoomAndPan="magnify" viewBox="0 0 375 374.999991" height="500" preserveAspectRatio="xMidYMid meet" version="1.2"><defs><clipPath id="2a15a47fcf"><path d="M 87.054688 126 L 208 126 L 208 193.898438 L 87.054688 193.898438 Z M 87.054688 126 "/></clipPath><clipPath id="7c48fbc07e"><path d="M 201 153 L 288 153 L 288 193.898438 L 201 193.898438 Z M 201 153 "/></clipPath><clipPath id="e99f968fb4"><path d="M 240 187 L 288 187 L 288 284 L 240 284 Z M 240 187 "/></clipPath><clipPath id="4c641d5416"><path d="M 276.601562 187.785156 L 287.941406 192.199219 L 252.3125 283.742188 L 240.96875 279.328125 Z M 276.601562 187.785156 "/></clipPath><clipPath id="aac4cd20a7"><path d="M 87 187 L 134 187 L 134 280 L 87 280 Z M 87 187 "/></clipPath><clipPath id="55e348a544"><path d="M 87.640625 192.027344 L 99.121094 187.539062 L 133.246094 274.839844 L 121.769531 279.328125 Z M 87.640625 192.027344 "/></clipPath></defs><g id="cf3a780db5"><g clip-rule="nonzero" clip-path="url(#2a15a47fcf)"><path style=" stroke:none;fill-rule:nonzero;fill:#4ec878;fill-opacity:1;" d="M 206.9375 147.367188 L 201.46875 141.898438 L 200.085938 143.285156 C 200.0625 143.308594 200.039062 143.328125 200.015625 143.351562 C 200.011719 143.355469 200.007812 143.359375 200 143.359375 C 199.984375 143.375 199.964844 143.386719 199.945312 143.402344 C 199.925781 143.414062 199.90625 143.425781 199.882812 143.4375 C 199.878906 143.445312 199.875 143.449219 199.863281 143.449219 C 199.847656 143.457031 199.824219 143.46875 199.804688 143.476562 C 199.800781 143.480469 199.789062 143.480469 199.785156 143.484375 C 199.765625 143.496094 199.746094 143.5 199.730469 143.503906 C 199.71875 143.507812 199.710938 143.515625 199.695312 143.515625 C 199.683594 143.519531 199.667969 143.523438 199.648438 143.527344 C 199.636719 143.53125 199.621094 143.539062 199.605469 143.539062 C 199.597656 143.539062 199.582031 143.542969 199.574219 143.542969 C 199.554688 143.546875 199.535156 143.546875 199.519531 143.550781 C 199.507812 143.550781 199.503906 143.550781 199.496094 143.550781 C 199.472656 143.550781 199.453125 143.554688 199.429688 143.554688 C 199.425781 143.554688 199.414062 143.554688 199.410156 143.554688 C 199.386719 143.554688 199.363281 143.554688 199.339844 143.550781 C 199.320312 143.550781 199.296875 143.546875 199.277344 143.542969 C 199.269531 143.542969 199.257812 143.539062 199.25 143.539062 C 199.21875 143.53125 199.1875 143.523438 199.160156 143.515625 C 197.875 143.125 196.980469 142.546875 196.355469 141.917969 C 195.734375 141.300781 195.382812 140.636719 195.175781 140.070312 C 194.921875 139.367188 194.871094 138.726562 194.875 138.285156 C 194.746094 137.953125 194.808594 137.554688 195.082031 137.28125 C 195.828125 136.535156 195.828125 135.324219 195.082031 134.578125 L 191.6875 131.183594 C 190.941406 130.4375 189.730469 130.4375 188.984375 131.183594 L 188.972656 131.199219 C 188.960938 131.207031 188.953125 131.21875 188.945312 131.222656 C 188.929688 131.230469 188.917969 131.246094 188.90625 131.253906 C 188.890625 131.265625 188.882812 131.273438 188.867188 131.28125 C 188.855469 131.292969 188.839844 131.300781 188.832031 131.3125 C 188.816406 131.320312 188.800781 131.324219 188.789062 131.335938 C 188.773438 131.34375 188.761719 131.347656 188.75 131.359375 C 188.738281 131.367188 188.722656 131.371094 188.707031 131.375 C 188.695312 131.382812 188.679688 131.390625 188.667969 131.394531 C 188.652344 131.402344 188.636719 131.40625 188.625 131.410156 C 188.609375 131.414062 188.597656 131.417969 188.582031 131.425781 C 188.566406 131.429688 188.554688 131.433594 188.535156 131.433594 C 188.519531 131.4375 188.507812 131.4375 188.492188 131.441406 C 188.480469 131.449219 188.460938 131.449219 188.445312 131.449219 C 188.433594 131.449219 188.417969 131.453125 188.402344 131.453125 C 188.390625 131.453125 188.371094 131.453125 188.355469 131.457031 C 188.34375 131.457031 188.328125 131.457031 188.316406 131.457031 C 188.300781 131.457031 188.285156 131.457031 188.273438 131.457031 C 188.257812 131.457031 188.242188 131.457031 188.230469 131.453125 C 188.214844 131.453125 188.203125 131.449219 188.1875 131.449219 C 188.171875 131.441406 188.160156 131.441406 188.144531 131.441406 C 188.132812 131.4375 188.117188 131.4375 188.101562 131.433594 C 188.089844 131.429688 188.074219 131.429688 188.0625 131.425781 C 188.046875 131.417969 188.03125 131.414062 188.019531 131.410156 C 188.003906 131.40625 187.992188 131.402344 187.976562 131.394531 C 187.960938 131.390625 187.949219 131.382812 187.929688 131.375 C 187.914062 131.371094 187.90625 131.367188 187.890625 131.359375 C 187.875 131.347656 187.859375 131.339844 187.84375 131.328125 C 187.835938 131.324219 187.828125 131.316406 187.816406 131.3125 C 187.796875 131.296875 187.773438 131.28125 187.757812 131.269531 C 187.75 131.265625 187.746094 131.257812 187.742188 131.257812 C 187.71875 131.242188 187.695312 131.21875 187.671875 131.195312 L 187.65625 131.179688 C 183.859375 127.242188 179.214844 125.722656 173.839844 126.667969 C 171.628906 127.058594 169.703125 127.804688 168.335938 128.460938 C 169.308594 128.710938 170.613281 129.121094 172.039062 129.765625 C 175.175781 131.203125 179.1875 133.992188 180.433594 139.105469 C 180.433594 139.113281 180.433594 139.117188 180.4375 139.121094 C 180.445312 139.148438 180.453125 139.183594 180.453125 139.210938 C 180.453125 139.214844 180.457031 139.222656 180.457031 139.230469 C 180.460938 139.265625 180.460938 139.300781 180.460938 139.335938 C 180.460938 139.347656 180.460938 139.355469 180.460938 139.367188 C 180.460938 139.394531 180.457031 139.421875 180.453125 139.449219 C 180.453125 139.460938 180.449219 139.46875 180.449219 139.484375 C 180.445312 139.511719 180.4375 139.539062 180.429688 139.570312 C 180.429688 139.578125 180.425781 139.585938 180.425781 139.589844 C 180.414062 139.625 180.402344 139.660156 180.386719 139.695312 C 180.386719 139.699219 180.382812 139.703125 180.382812 139.707031 C 180.371094 139.734375 180.355469 139.765625 180.339844 139.792969 C 180.335938 139.800781 180.332031 139.8125 180.324219 139.816406 C 180.3125 139.839844 180.296875 139.863281 180.277344 139.886719 C 180.273438 139.894531 180.269531 139.90625 180.261719 139.910156 C 180.238281 139.9375 180.214844 139.964844 180.183594 139.996094 L 134.800781 185.378906 L 87.054688 185.378906 L 87.054688 193.585938 L 139.039062 193.585938 L 184.921875 147.699219 C 185.464844 147.359375 186.210938 146.972656 187.070312 146.773438 C 187.109375 146.761719 187.144531 146.753906 187.183594 146.75 C 187.746094 146.625 188.355469 146.582031 188.984375 146.679688 C 190.515625 146.917969 191.792969 147.902344 192.789062 149.609375 C 192.792969 149.617188 192.792969 149.621094 192.792969 149.625 C 192.800781 149.644531 192.8125 149.660156 192.820312 149.675781 C 192.824219 149.6875 192.828125 149.699219 192.835938 149.710938 C 192.839844 149.722656 192.847656 149.742188 192.851562 149.757812 C 192.859375 149.769531 192.863281 149.785156 192.867188 149.792969 C 192.871094 149.808594 192.875 149.824219 192.875 149.835938 C 192.882812 149.851562 192.886719 149.871094 192.886719 149.882812 C 192.890625 149.898438 192.890625 149.90625 192.894531 149.921875 C 192.898438 149.941406 192.898438 149.953125 192.90625 149.972656 C 192.90625 149.988281 192.90625 149.996094 192.910156 150.011719 C 192.910156 150.027344 192.914062 150.042969 192.914062 150.0625 C 192.914062 150.074219 192.914062 150.085938 192.914062 150.097656 C 192.914062 150.113281 192.914062 150.132812 192.914062 150.144531 C 192.914062 150.160156 192.910156 150.175781 192.910156 150.1875 C 192.910156 150.203125 192.90625 150.214844 192.90625 150.230469 C 192.898438 150.246094 192.898438 150.261719 192.894531 150.277344 C 192.890625 150.292969 192.890625 150.300781 192.886719 150.316406 C 192.882812 150.335938 192.875 150.347656 192.871094 150.367188 C 192.867188 150.382812 192.863281 150.390625 192.859375 150.398438 C 192.851562 150.417969 192.84375 150.433594 192.839844 150.445312 C 192.835938 150.460938 192.828125 150.46875 192.820312 150.484375 C 192.8125 150.5 192.804688 150.511719 192.796875 150.527344 C 192.792969 150.539062 192.78125 150.554688 192.773438 150.5625 C 192.769531 150.578125 192.757812 150.585938 192.75 150.597656 C 192.742188 150.609375 192.730469 150.625 192.71875 150.640625 C 192.707031 150.648438 192.703125 150.65625 192.695312 150.667969 C 192.679688 150.679688 192.671875 150.695312 192.65625 150.710938 C 192.652344 150.714844 192.652344 150.71875 192.648438 150.71875 L 191.195312 152.167969 L 196.664062 157.636719 C 197.0625 158.035156 197.714844 158.035156 198.113281 157.636719 L 206.941406 148.808594 C 207.335938 148.414062 207.335938 147.765625 206.9375 147.367188 Z M 206.9375 147.367188 "/></g><path style=" stroke:none;fill-rule:nonzero;fill:#38b6ff;fill-opacity:1;" d="M 178.527344 162.566406 L 186.703125 162.566406 L 186.703125 170.742188 L 178.527344 170.742188 Z M 178.527344 162.566406 "/><path style=" stroke:none;fill-rule:nonzero;fill:#38b6ff;fill-opacity:1;" d="M 188.808594 162.566406 L 196.984375 162.566406 L 196.984375 170.742188 L 188.808594 170.742188 Z M 188.808594 162.566406 "/><path style=" stroke:none;fill-rule:nonzero;fill:#38b6ff;fill-opacity:1;" d="M 188.808594 173.394531 L 196.984375 173.394531 L 196.984375 181.570312 L 188.808594 181.570312 Z M 188.808594 173.394531 "/><path style=" stroke:none;fill-rule:nonzero;fill:#38b6ff;fill-opacity:1;" d="M 178.527344 173.394531 L 186.703125 173.394531 L 186.703125 181.570312 L 178.527344 181.570312 Z M 178.527344 173.394531 "/><g clip-rule="nonzero" clip-path="url(#7c48fbc07e)"><path style=" stroke:none;fill-rule:nonzero;fill:#38b6ff;fill-opacity:1;" d="M 240.195312 185.371094 L 208.042969 153.214844 L 201.816406 159.433594 L 235.957031 193.574219 L 287.9375 193.574219 L 287.9375 185.371094 Z M 240.195312 185.371094 "/></g><path style=" stroke:none;fill-rule:nonzero;fill:#38b6ff;fill-opacity:1;" d="M 230.410156 146.433594 L 221.613281 146.433594 L 221.613281 162.457031 L 230.410156 170.578125 Z M 230.410156 146.433594 "/><g clip-rule="nonzero" clip-path="url(#e99f968fb4)"><g clip-rule="nonzero" clip-path="url(#4c641d5416)"><path style=" stroke:none;fill-rule:nonzero;fill:#38b6ff;fill-opacity:1;" d="M 276.601562 187.785156 L 287.941406 192.199219 L 252.316406 283.730469 L 240.972656 279.316406 Z M 276.601562 187.785156 "/></g></g><g style="fill:#000000;fill-opacity:1;"><g transform="translate(133.872052, 226.966449)"><path style="stroke:none" d="M 28.53125 -24.5625 C 28.71875 -24.21875 28.828125 -23.90625 28.859375 -23.625 C 28.898438 -23.34375 28.921875 -22.9375 28.921875 -22.40625 L 28.921875 -3.0625 C 28.921875 -1.457031 28.476562 -0.519531 27.59375 -0.25 C 27.15625 -0.101562 26.597656 -0.03125 25.921875 -0.03125 C 25.242188 -0.03125 24.707031 -0.0859375 24.3125 -0.203125 C 23.925781 -0.328125 23.625 -0.46875 23.40625 -0.625 C 23.195312 -0.789062 23.035156 -1.023438 22.921875 -1.328125 C 22.804688 -1.722656 22.75 -2.328125 22.75 -3.140625 L 22.75 -14.8125 C 22.164062 -14.09375 21.316406 -12.945312 20.203125 -11.375 C 19.085938 -9.8125 18.378906 -8.832031 18.078125 -8.4375 C 17.773438 -8.039062 17.566406 -7.765625 17.453125 -7.609375 C 17.335938 -7.460938 17.050781 -7.253906 16.59375 -6.984375 C 16.144531 -6.710938 15.660156 -6.578125 15.140625 -6.578125 C 14.617188 -6.578125 14.140625 -6.695312 13.703125 -6.9375 C 13.273438 -7.1875 12.96875 -7.429688 12.78125 -7.671875 L 12.515625 -8.046875 C 12.046875 -8.628906 11.125 -9.863281 9.75 -11.75 C 8.382812 -13.644531 7.644531 -14.664062 7.53125 -14.8125 L 7.53125 -3.0625 C 7.53125 -2.53125 7.507812 -2.128906 7.46875 -1.859375 C 7.4375 -1.597656 7.328125 -1.300781 7.140625 -0.96875 C 6.796875 -0.34375 5.890625 -0.03125 4.421875 -0.03125 C 3.003906 -0.03125 2.125 -0.34375 1.78125 -0.96875 C 1.59375 -1.300781 1.476562 -1.601562 1.4375 -1.875 C 1.40625 -2.15625 1.390625 -2.578125 1.390625 -3.140625 L 1.390625 -22.46875 C 1.390625 -23.007812 1.40625 -23.410156 1.4375 -23.671875 C 1.476562 -23.941406 1.59375 -24.25 1.78125 -24.59375 C 2.125 -25.195312 3.03125 -25.5 4.5 -25.5 C 5.125 -25.5 5.660156 -25.421875 6.109375 -25.265625 C 6.566406 -25.117188 6.863281 -24.96875 7 -24.8125 L 7.21875 -24.59375 L 15.125 -14.21875 C 19.070312 -19.445312 21.707031 -22.894531 23.03125 -24.5625 C 23.425781 -25.1875 24.359375 -25.5 25.828125 -25.5 C 27.304688 -25.5 28.207031 -25.1875 28.53125 -24.5625 Z M 28.53125 -24.5625 "/></g></g><g style="fill:#000000;fill-opacity:1;"><g transform="translate(164.172515, 226.966449)"><path style="stroke:none" d="M 16.125 -23.734375 L 25.546875 -4.28125 C 25.929688 -3.488281 26.125 -2.898438 26.125 -2.515625 C 26.125 -1.671875 25.453125 -0.914062 24.109375 -0.25 C 23.316406 0.144531 22.691406 0.34375 22.234375 0.34375 C 21.785156 0.34375 21.414062 0.238281 21.125 0.03125 C 20.84375 -0.175781 20.632812 -0.394531 20.5 -0.625 C 20.375 -0.851562 20.195312 -1.203125 19.96875 -1.671875 L 18.15625 -5.4375 L 8.5 -5.4375 L 6.6875 -1.671875 C 6.457031 -1.203125 6.273438 -0.863281 6.140625 -0.65625 C 6.015625 -0.445312 5.804688 -0.234375 5.515625 -0.015625 C 5.234375 0.203125 4.863281 0.3125 4.40625 0.3125 C 3.957031 0.3125 3.335938 0.113281 2.546875 -0.28125 C 1.191406 -0.925781 0.515625 -1.671875 0.515625 -2.515625 C 0.515625 -2.898438 0.710938 -3.488281 1.109375 -4.28125 L 10.515625 -23.765625 C 10.773438 -24.296875 11.164062 -24.722656 11.6875 -25.046875 C 12.207031 -25.378906 12.757812 -25.546875 13.34375 -25.546875 C 14.601562 -25.546875 15.53125 -24.941406 16.125 -23.734375 Z M 13.3125 -15.359375 L 11.015625 -10.59375 L 15.640625 -10.59375 Z M 13.3125 -15.359375 "/></g></g><g style="fill:#000000;fill-opacity:1;"><g transform="translate(190.81603, 226.966449)"><path style="stroke:none" d="M 17.359375 -6.6875 L 17.984375 -7.140625 C 18.765625 -7.609375 19.320312 -7.84375 19.65625 -7.84375 C 20.375 -7.84375 21.148438 -7.191406 21.984375 -5.890625 C 22.492188 -5.078125 22.75 -4.425781 22.75 -3.9375 C 22.75 -3.445312 22.59375 -3.039062 22.28125 -2.71875 C 21.96875 -2.394531 21.601562 -2.101562 21.1875 -1.84375 C 20.769531 -1.59375 20.367188 -1.347656 19.984375 -1.109375 C 19.597656 -0.878906 18.8125 -0.578125 17.625 -0.203125 C 16.445312 0.160156 15.304688 0.34375 14.203125 0.34375 C 13.097656 0.34375 11.976562 0.203125 10.84375 -0.078125 C 9.71875 -0.367188 8.554688 -0.859375 7.359375 -1.546875 C 6.171875 -2.234375 5.097656 -3.070312 4.140625 -4.0625 C 3.191406 -5.050781 2.410156 -6.316406 1.796875 -7.859375 C 1.179688 -9.398438 0.875 -11.078125 0.875 -12.890625 C 0.875 -14.703125 1.175781 -16.34375 1.78125 -17.8125 C 2.382812 -19.289062 3.15625 -20.507812 4.09375 -21.46875 C 5.03125 -22.4375 6.101562 -23.25 7.3125 -23.90625 C 9.59375 -25.15625 11.882812 -25.78125 14.1875 -25.78125 C 15.269531 -25.78125 16.375 -25.613281 17.5 -25.28125 C 18.632812 -24.945312 19.488281 -24.601562 20.0625 -24.25 L 20.90625 -23.765625 C 21.320312 -23.503906 21.644531 -23.296875 21.875 -23.140625 C 22.476562 -22.648438 22.78125 -22.097656 22.78125 -21.484375 C 22.78125 -20.867188 22.539062 -20.222656 22.0625 -19.546875 C 21.15625 -18.296875 20.335938 -17.671875 19.609375 -17.671875 C 19.191406 -17.671875 18.601562 -17.925781 17.84375 -18.4375 C 16.863281 -19.21875 15.5625 -19.609375 13.9375 -19.609375 C 12.425781 -19.609375 10.941406 -19.085938 9.484375 -18.046875 C 8.785156 -17.535156 8.203125 -16.816406 7.734375 -15.890625 C 7.265625 -14.960938 7.03125 -13.910156 7.03125 -12.734375 C 7.03125 -11.554688 7.265625 -10.503906 7.734375 -9.578125 C 8.203125 -8.648438 8.796875 -7.921875 9.515625 -7.390625 C 10.929688 -6.367188 12.40625 -5.859375 13.9375 -5.859375 C 14.65625 -5.859375 15.332031 -5.945312 15.96875 -6.125 C 16.613281 -6.3125 17.078125 -6.5 17.359375 -6.6875 Z M 17.359375 -6.6875 "/></g></g><g style="fill:#000000;fill-opacity:1;"><g transform="translate(214.464328, 226.966449)"><path style="stroke:none" d="M 16.125 -23.734375 L 25.546875 -4.28125 C 25.929688 -3.488281 26.125 -2.898438 26.125 -2.515625 C 26.125 -1.671875 25.453125 -0.914062 24.109375 -0.25 C 23.316406 0.144531 22.691406 0.34375 22.234375 0.34375 C 21.785156 0.34375 21.414062 0.238281 21.125 0.03125 C 20.84375 -0.175781 20.632812 -0.394531 20.5 -0.625 C 20.375 -0.851562 20.195312 -1.203125 19.96875 -1.671875 L 18.15625 -5.4375 L 8.5 -5.4375 L 6.6875 -1.671875 C 6.457031 -1.203125 6.273438 -0.863281 6.140625 -0.65625 C 6.015625 -0.445312 5.804688 -0.234375 5.515625 -0.015625 C 5.234375 0.203125 4.863281 0.3125 4.40625 0.3125 C 3.957031 0.3125 3.335938 0.113281 2.546875 -0.28125 C 1.191406 -0.925781 0.515625 -1.671875 0.515625 -2.515625 C 0.515625 -2.898438 0.710938 -3.488281 1.109375 -4.28125 L 10.515625 -23.765625 C 10.773438 -24.296875 11.164062 -24.722656 11.6875 -25.046875 C 12.207031 -25.378906 12.757812 -25.546875 13.34375 -25.546875 C 14.601562 -25.546875 15.53125 -24.941406 16.125 -23.734375 Z M 13.3125 -15.359375 L 11.015625 -10.59375 L 15.640625 -10.59375 Z M 13.3125 -15.359375 "/></g></g><g style="fill:#545454;fill-opacity:1;"><g transform="translate(140.225958, 239.607318)"><path style="stroke:none" d="M 5.21875 -7.25 L 3.515625 -7.25 L 3.515625 -0.8125 L 5.21875 -0.8125 L 5.21875 0 L 0.8125 0 L 0.8125 -0.8125 L 2.515625 -0.8125 L 2.515625 -7.25 L 0.8125 -7.25 L 0.8125 -8.0625 L 5.21875 -8.0625 Z M 5.21875 -7.25 "/></g></g><g style="fill:#545454;fill-opacity:1;"><g transform="translate(147.824823, 239.607318)"><path style="stroke:none" d="M 6.6875 -8.0625 L 7.6875 -8.0625 L 7.6875 0 L 6 0 L 2.34375 -6.328125 C 2.132812 -6.710938 1.960938 -7.066406 1.828125 -7.390625 L 1.828125 0 L 0.828125 0 L 0.828125 -8.0625 L 2.515625 -8.0625 L 6.1875 -1.71875 C 6.269531 -1.582031 6.351562 -1.421875 6.4375 -1.234375 C 6.53125 -1.046875 6.613281 -0.859375 6.6875 -0.671875 Z M 6.6875 -8.0625 "/></g></g><g style="fill:#545454;fill-opacity:1;"><g transform="translate(157.907696, 239.607318)"><path style="stroke:none" d="M 6.734375 -8.0625 L 7.75 -8.0625 L 4.84375 0 L 3.390625 0 L 0.453125 -8.0625 L 1.515625 -8.0625 L 3.765625 -1.84375 C 3.910156 -1.46875 4.03125 -1.113281 4.125 -0.78125 C 4.164062 -0.957031 4.21875 -1.132812 4.28125 -1.3125 C 4.34375 -1.488281 4.40625 -1.664062 4.46875 -1.84375 Z M 6.734375 -8.0625 "/></g></g><g style="fill:#545454;fill-opacity:1;"><g transform="translate(167.687645, 239.607318)"><path style="stroke:none" d="M 1.828125 -0.8125 L 6.828125 -0.8125 L 6.828125 0 L 0.828125 0 L 0.828125 -8.0625 L 6.796875 -8.0625 L 6.796875 -7.25 L 1.828125 -7.25 L 1.828125 -4.546875 L 6.421875 -4.546875 L 6.421875 -3.75 L 1.828125 -3.75 Z M 1.828125 -0.8125 "/></g></g><g style="fill:#545454;fill-opacity:1;"><g transform="translate(176.837505, 239.607318)"><path style="stroke:none" d="M 0.625 -2.765625 L 1.609375 -2.765625 C 1.617188 -2.347656 1.703125 -1.972656 1.859375 -1.640625 C 2.023438 -1.316406 2.289062 -1.0625 2.65625 -0.875 C 3.03125 -0.695312 3.523438 -0.609375 4.140625 -0.609375 C 4.703125 -0.609375 5.140625 -0.664062 5.453125 -0.78125 C 5.765625 -0.90625 5.984375 -1.082031 6.109375 -1.3125 C 6.242188 -1.539062 6.3125 -1.804688 6.3125 -2.109375 C 6.3125 -2.535156 6.191406 -2.863281 5.953125 -3.09375 C 5.722656 -3.320312 5.351562 -3.472656 4.84375 -3.546875 L 2.953125 -3.84375 C 2.242188 -3.945312 1.722656 -4.171875 1.390625 -4.515625 C 1.054688 -4.867188 0.890625 -5.347656 0.890625 -5.953125 C 0.890625 -6.390625 1 -6.78125 1.21875 -7.125 C 1.445312 -7.476562 1.785156 -7.757812 2.234375 -7.96875 C 2.691406 -8.175781 3.269531 -8.28125 3.96875 -8.28125 C 5.019531 -8.28125 5.8125 -8.035156 6.34375 -7.546875 C 6.875 -7.066406 7.164062 -6.4375 7.21875 -5.65625 L 6.25 -5.65625 C 6.195312 -6.207031 5.988281 -6.648438 5.625 -6.984375 C 5.269531 -7.328125 4.710938 -7.5 3.953125 -7.5 C 3.242188 -7.5 2.726562 -7.359375 2.40625 -7.078125 C 2.082031 -6.796875 1.921875 -6.429688 1.921875 -5.984375 C 1.921875 -5.660156 2.007812 -5.382812 2.1875 -5.15625 C 2.363281 -4.925781 2.675781 -4.773438 3.125 -4.703125 L 5.140625 -4.40625 C 5.859375 -4.289062 6.398438 -4.0625 6.765625 -3.71875 C 7.140625 -3.382812 7.328125 -2.894531 7.328125 -2.25 C 7.328125 -1.476562 7.078125 -0.878906 6.578125 -0.453125 C 6.078125 -0.0234375 5.265625 0.1875 4.140625 0.1875 C 3.273438 0.1875 2.582031 0.0507812 2.0625 -0.21875 C 1.550781 -0.488281 1.179688 -0.847656 0.953125 -1.296875 C 0.734375 -1.742188 0.625 -2.234375 0.625 -2.765625 Z M 0.625 -2.765625 "/></g></g><g style="fill:#545454;fill-opacity:1;"><g transform="translate(186.375113, 239.607318)"><path style="stroke:none" d="M 9.640625 -8.0625 L 9.640625 0 L 8.640625 0 L 8.640625 -7.3125 L 5.921875 0 L 4.5625 0 L 1.828125 -7.3125 L 1.828125 0 L 0.828125 0 L 0.828125 -8.0625 L 2.578125 -8.0625 L 5.25 -0.90625 L 7.90625 -8.0625 Z M 9.640625 -8.0625 "/></g></g><g style="fill:#545454;fill-opacity:1;"><g transform="translate(198.39673, 239.607318)"><path style="stroke:none" d="M 1.828125 -0.8125 L 6.828125 -0.8125 L 6.828125 0 L 0.828125 0 L 0.828125 -8.0625 L 6.796875 -8.0625 L 6.796875 -7.25 L 1.828125 -7.25 L 1.828125 -4.546875 L 6.421875 -4.546875 L 6.421875 -3.75 L 1.828125 -3.75 Z M 1.828125 -0.8125 "/></g></g><g style="fill:#545454;fill-opacity:1;"><g transform="translate(207.54659, 239.607318)"><path style="stroke:none" d="M 6.6875 -8.0625 L 7.6875 -8.0625 L 7.6875 0 L 6 0 L 2.34375 -6.328125 C 2.132812 -6.710938 1.960938 -7.066406 1.828125 -7.390625 L 1.828125 0 L 0.828125 0 L 0.828125 -8.0625 L 2.515625 -8.0625 L 6.1875 -1.71875 C 6.269531 -1.582031 6.351562 -1.421875 6.4375 -1.234375 C 6.53125 -1.046875 6.613281 -0.859375 6.6875 -0.671875 Z M 6.6875 -8.0625 "/></g></g><g style="fill:#545454;fill-opacity:1;"><g transform="translate(217.629464, 239.607318)"><path style="stroke:none" d="M 7.1875 -8.0625 L 7.1875 -7.25 L 4.296875 -7.25 L 4.296875 0.015625 L 3.3125 0.015625 L 3.3125 -7.25 L 0.40625 -7.25 L 0.40625 -8.0625 Z M 7.1875 -8.0625 "/></g></g><g style="fill:#545454;fill-opacity:1;"><g transform="translate(226.791431, 239.607318)"><path style="stroke:none" d="M 0.625 -2.765625 L 1.609375 -2.765625 C 1.617188 -2.347656 1.703125 -1.972656 1.859375 -1.640625 C 2.023438 -1.316406 2.289062 -1.0625 2.65625 -0.875 C 3.03125 -0.695312 3.523438 -0.609375 4.140625 -0.609375 C 4.703125 -0.609375 5.140625 -0.664062 5.453125 -0.78125 C 5.765625 -0.90625 5.984375 -1.082031 6.109375 -1.3125 C 6.242188 -1.539062 6.3125 -1.804688 6.3125 -2.109375 C 6.3125 -2.535156 6.191406 -2.863281 5.953125 -3.09375 C 5.722656 -3.320312 5.351562 -3.472656 4.84375 -3.546875 L 2.953125 -3.84375 C 2.242188 -3.945312 1.722656 -4.171875 1.390625 -4.515625 C 1.054688 -4.867188 0.890625 -5.347656 0.890625 -5.953125 C 0.890625 -6.390625 1 -6.78125 1.21875 -7.125 C 1.445312 -7.476562 1.785156 -7.757812 2.234375 -7.96875 C 2.691406 -8.175781 3.269531 -8.28125 3.96875 -8.28125 C 5.019531 -8.28125 5.8125 -8.035156 6.34375 -7.546875 C 6.875 -7.066406 7.164062 -6.4375 7.21875 -5.65625 L 6.25 -5.65625 C 6.195312 -6.207031 5.988281 -6.648438 5.625 -6.984375 C 5.269531 -7.328125 4.710938 -7.5 3.953125 -7.5 C 3.242188 -7.5 2.726562 -7.359375 2.40625 -7.078125 C 2.082031 -6.796875 1.921875 -6.429688 1.921875 -5.984375 C 1.921875 -5.660156 2.007812 -5.382812 2.1875 -5.15625 C 2.363281 -4.925781 2.675781 -4.773438 3.125 -4.703125 L 5.140625 -4.40625 C 5.859375 -4.289062 6.398438 -4.0625 6.765625 -3.71875 C 7.140625 -3.382812 7.328125 -2.894531 7.328125 -2.25 C 7.328125 -1.476562 7.078125 -0.878906 6.578125 -0.453125 C 6.078125 -0.0234375 5.265625 0.1875 4.140625 0.1875 C 3.273438 0.1875 2.582031 0.0507812 2.0625 -0.21875 C 1.550781 -0.488281 1.179688 -0.847656 0.953125 -1.296875 C 0.734375 -1.742188 0.625 -2.234375 0.625 -2.765625 Z M 0.625 -2.765625 "/></g></g><g style="fill:#545454;fill-opacity:1;"><g transform="translate(173.366581, 256.107317)"><path style="stroke:none" d="M 1.828125 -0.8125 L 6.046875 -0.8125 L 6.046875 0 L 0.828125 0 L 0.828125 -8.0625 L 1.828125 -8.0625 Z M 1.828125 -0.8125 "/></g></g><g style="fill:#545454;fill-opacity:1;"><g transform="translate(181.244132, 256.107317)"><path style="stroke:none" d="M 1.828125 -0.8125 L 6.046875 -0.8125 L 6.046875 0 L 0.828125 0 L 0.828125 -8.0625 L 1.828125 -8.0625 Z M 1.828125 -0.8125 "/></g></g><g style="fill:#545454;fill-opacity:1;"><g transform="translate(189.121684, 256.107317)"><path style="stroke:none" d="M 4.6875 0.203125 C 3.769531 0.203125 3.015625 0.0195312 2.421875 -0.34375 C 1.828125 -0.707031 1.382812 -1.207031 1.09375 -1.84375 C 0.8125 -2.488281 0.671875 -3.21875 0.671875 -4.03125 C 0.671875 -4.84375 0.816406 -5.566406 1.109375 -6.203125 C 1.398438 -6.847656 1.84375 -7.351562 2.4375 -7.71875 C 3.03125 -8.09375 3.789062 -8.28125 4.71875 -8.28125 C 5.957031 -8.28125 6.875 -7.992188 7.46875 -7.421875 C 8.070312 -6.847656 8.425781 -6.0625 8.53125 -5.0625 L 7.5 -5.0625 C 7.425781 -5.851562 7.15625 -6.445312 6.6875 -6.84375 C 6.226562 -7.238281 5.5625 -7.4375 4.6875 -7.4375 C 3.6875 -7.4375 2.941406 -7.148438 2.453125 -6.578125 C 1.960938 -6.015625 1.71875 -5.164062 1.71875 -4.03125 C 1.71875 -2.914062 1.957031 -2.066406 2.4375 -1.484375 C 2.925781 -0.910156 3.671875 -0.625 4.671875 -0.625 C 5.578125 -0.625 6.265625 -0.847656 6.734375 -1.296875 C 7.203125 -1.753906 7.46875 -2.394531 7.53125 -3.21875 L 8.5625 -3.21875 C 8.519531 -2.53125 8.359375 -1.929688 8.078125 -1.421875 C 7.796875 -0.910156 7.375 -0.507812 6.8125 -0.21875 C 6.257812 0.0625 5.550781 0.203125 4.6875 0.203125 Z M 4.6875 0.203125 "/></g></g><g style="fill:#545454;fill-opacity:1;"><g transform="translate(199.846765, 256.107317)"><path style="stroke:none" d="M 0.25 0 L 0.25 -1.0625 L 1.515625 -1.0625 L 1.515625 0 Z M 0.25 0 "/></g></g><g clip-rule="nonzero" clip-path="url(#aac4cd20a7)"><g clip-rule="nonzero" clip-path="url(#55e348a544)"><path style=" stroke:none;fill-rule:nonzero;fill:#4ec878;fill-opacity:1;" d="M 87.640625 192.027344 L 99.121094 187.539062 L 133.253906 274.851562 L 121.773438 279.339844 Z M 87.640625 192.027344 "/></g></g><g style="fill:#000000;fill-opacity:1;"><g transform="translate(176.650983, 276.913963)"><path style="stroke:none" d="M 5.234375 -4.015625 L 5.859375 -4.015625 L 4.984375 0 L 3.921875 0 L 3.0625 -3.515625 L 2.203125 0 L 1.140625 0 L 0.265625 -4.015625 L 0.90625 -4.015625 L 1.6875 -0.375 L 2.578125 -4.015625 L 3.5625 -4.015625 L 4.4375 -0.375 Z M 5.234375 -4.015625 "/></g></g><g style="fill:#000000;fill-opacity:1;"><g transform="translate(183.502269, 276.913963)"><path style="stroke:none" d="M 2.171875 -2.328125 L 3.84375 -0.03125 L 3.84375 0 L 3.09375 0 L 1.75 -1.875 L 1.015625 -1.09375 L 1.015625 0 L 0.390625 0 L 0.390625 -4.015625 L 1.015625 -4.015625 L 1.015625 -1.890625 L 2.9375 -4.015625 L 3.75 -4.015625 Z M 2.171875 -2.328125 "/></g></g><g style="fill:#000000;fill-opacity:1;"><g transform="translate(187.739798, 276.913963)"><path style="stroke:none" d="M 2.359375 0.109375 C 1.890625 0.109375 1.503906 0.015625 1.203125 -0.171875 C 0.898438 -0.359375 0.675781 -0.609375 0.53125 -0.921875 C 0.394531 -1.242188 0.328125 -1.609375 0.328125 -2.015625 C 0.328125 -2.398438 0.398438 -2.75 0.546875 -3.0625 C 0.691406 -3.382812 0.914062 -3.640625 1.21875 -3.828125 C 1.519531 -4.023438 1.90625 -4.125 2.375 -4.125 C 2.800781 -4.125 3.148438 -4.054688 3.421875 -3.921875 C 3.691406 -3.796875 3.894531 -3.613281 4.03125 -3.375 C 4.175781 -3.132812 4.265625 -2.847656 4.296875 -2.515625 L 3.65625 -2.515625 C 3.613281 -2.867188 3.488281 -3.140625 3.28125 -3.328125 C 3.082031 -3.515625 2.773438 -3.609375 2.359375 -3.609375 C 1.890625 -3.609375 1.539062 -3.472656 1.3125 -3.203125 C 1.09375 -2.929688 0.984375 -2.535156 0.984375 -2.015625 C 0.984375 -1.484375 1.09375 -1.082031 1.3125 -0.8125 C 1.53125 -0.539062 1.875 -0.40625 2.34375 -0.40625 C 2.78125 -0.40625 3.101562 -0.507812 3.3125 -0.71875 C 3.519531 -0.925781 3.640625 -1.207031 3.671875 -1.5625 L 4.3125 -1.5625 C 4.289062 -1.226562 4.207031 -0.9375 4.0625 -0.6875 C 3.925781 -0.4375 3.71875 -0.238281 3.4375 -0.09375 C 3.15625 0.0390625 2.796875 0.109375 2.359375 0.109375 Z M 2.359375 0.109375 "/></g></g><g style="fill:#000000;fill-opacity:1;"><g transform="translate(193.027657, 276.913963)"><path style="stroke:none" d="M 4.921875 -4.015625 L 4.921875 0 L 4.296875 0 L 4.296875 -3.53125 L 3.0625 0 L 2.25 0 L 1.015625 -3.53125 L 1.015625 0 L 0.390625 0 L 0.390625 -4.015625 L 1.46875 -4.015625 L 2.65625 -0.609375 L 3.84375 -4.015625 Z M 4.921875 -4.015625 "/></g></g></g></svg>